<svg width="16" height="16" viewBox="0 0 16 16" fill="none" xmlns="http://www.w3.org/2000/svg">
<g clip-path="url(#clip0_52_4)">
<path d="M3.6 5C2.495 5 1.6 3.88125 1.6 2.5C1.6 1.11875 2.495 0 3.6 0C4.705 0 5.6 1.11875 5.6 2.5C5.6 3.88125 4.705 5 3.6 5ZM12.8 5C11.695 5 10.8 3.88125 10.8 2.5C10.8 1.11875 11.695 0 12.8 0C13.905 0 14.8 1.11875 14.8 2.5C14.8 3.88125 13.905 5 12.8 5ZM0 9.33438C0 7.49375 1.195 6 2.6675 6H3.735C4.1325 6 4.51 6.10937 4.85 6.30312C4.8175 6.52812 4.8025 6.7625 4.8025 7C4.8025 8.19375 5.2225 9.26562 5.885 10C5.88 10 5.875 10 5.8675 10H0.5325C0.24 10 0 9.7 0 9.33438ZM10.1325 10C10.1275 10 10.1225 10 10.115 10C10.78 9.26562 11.1975 8.19375 11.1975 7C11.1975 6.7625 11.18 6.53125 11.15 6.30312C11.49 6.10625 11.8675 6 12.265 6H13.3325C14.805 6 16 7.49375 16 9.33438C16 9.70313 15.76 10 15.4675 10H10.1325ZM10.4 7C10.4 8.65625 9.325 10 8 10C6.675 10 5.6 8.65625 5.6 7C5.6 5.34375 6.675 4 8 4C9.325 4 10.4 5.34375 10.4 7ZM3.2 15.1656C3.2 12.8656 4.6925 11 6.5325 11H9.4675C11.3075 11 12.8 12.8656 12.8 15.1656C12.8 15.625 12.5025 16 12.1325 16H3.8675C3.5 16 3.2 15.6281 3.2 15.1656V15.1656Z" fill="#787887"/>
</g>
<defs>
<clipPath id="clip0_52_4">
<rect width="16" height="16" fill="white"/>
</clipPath>
</defs>
</svg>
