<svg width="16" height="12" viewBox="0 0 16 12" fill="none" xmlns="http://www.w3.org/2000/svg">
<path d="M0 1C0 0.446875 0.510714 0 1.14286 0H14.8571C15.4893 0 16 0.446875 16 1C16 1.55313 15.4893 2 14.8571 2H1.14286C0.510714 2 0 1.55313 0 1ZM0 6C0 5.44687 0.510714 5 1.14286 5H14.8571C15.4893 5 16 5.44687 16 6C16 6.55313 15.4893 7 14.8571 7H1.14286C0.510714 7 0 6.55313 0 6ZM16 11C16 11.5531 15.4893 12 14.8571 12H1.14286C0.510714 12 0 11.5531 0 11C0 10.4469 0.510714 10 1.14286 10H14.8571C15.4893 10 16 10.4469 16 11Z" fill="black"/>
</svg>
