<svg width="25" height="25" viewBox="0 0 25 25" fill="none" xmlns="http://www.w3.org/2000/svg">
<path d="M7.61907 20C7.45488 20 7.29742 19.9342 7.18132 19.8169C7.06522 19.6997 7 19.5408 7 19.375L7 5.62473C7.00005 5.51498 7.02872 5.40718 7.08313 5.31217C7.13755 5.21716 7.21578 5.13828 7.30996 5.08349C7.40415 5.02869 7.51097 4.99989 7.61968 5C7.72838 5.00011 7.83514 5.02911 7.92922 5.0841L19.6916 11.9592C19.7854 12.0142 19.8632 12.093 19.9174 12.1879C19.9715 12.2828 20 12.3904 20 12.4999C20 12.6094 19.9715 12.7169 19.9174 12.8118C19.8632 12.9067 19.7854 12.9856 19.6916 13.0405L7.92923 19.9156C7.83502 19.9709 7.72802 20 7.61907 20V20Z" fill="black"/>
</svg>
