<svg width="16" height="16" viewBox="0 0 16 16" fill="none" xmlns="http://www.w3.org/2000/svg">
<path d="M8.00347 9.19561C8.66621 9.19561 9.20347 8.65861 9.20347 7.99618C9.20347 7.33376 8.66621 6.79675 8.00347 6.79675C7.34073 6.79675 6.80347 7.33376 6.80347 7.99618C6.80347 8.65861 7.34073 9.19561 8.00347 9.19561Z" fill="#787887"/>
<path d="M15.9153 6.65283L15.2833 4.63779C15.2151 4.40491 15.1006 4.18814 14.9468 4.00043C14.7929 3.81272 14.6028 3.65791 14.3878 3.54522C14.1728 3.43254 13.9372 3.3643 13.6953 3.34456C13.4533 3.32483 13.2098 3.35401 12.9793 3.43037L12.7073 3.51832C12.4943 3.58873 12.2673 3.60659 12.0458 3.57039C11.8243 3.53419 11.6149 3.445 11.4353 3.31042L11.3473 3.24645C11.1721 3.11242 11.0309 2.9391 10.935 2.74048C10.8391 2.54186 10.7913 2.32349 10.7953 2.103V1.8791C10.7992 1.37696 10.6036 0.893807 10.2513 0.535745C10.0838 0.366587 9.88448 0.232179 9.66482 0.14024C9.44516 0.0483004 9.20949 0.000641448 8.97135 0H6.93135C6.44189 0.006322 5.97475 0.205656 5.63163 0.554602C5.28851 0.903548 5.0972 1.37385 5.09935 1.86311V2.05502C5.09858 2.28713 5.04571 2.5161 4.94464 2.72507C4.84356 2.93404 4.69686 3.11768 4.51535 3.26245L4.41135 3.34241C4.21082 3.49403 3.97628 3.59441 3.72811 3.63483C3.47994 3.67524 3.22566 3.65446 2.98735 3.5743C2.76848 3.49859 2.53652 3.46806 2.30551 3.48456C2.07449 3.50105 1.84923 3.56422 1.64335 3.67025C1.42899 3.77659 1.23882 3.92588 1.08468 4.10885C0.930531 4.29181 0.815706 4.50452 0.747348 4.73374L0.0913481 6.81275C-0.0607781 7.28149 -0.0217651 7.79128 0.199915 8.23144C0.421596 8.67159 0.808045 9.00657 1.27535 9.16363H1.40335C1.61891 9.24438 1.81239 9.37479 1.96807 9.54429C2.12376 9.7138 2.23725 9.9176 2.29935 10.1392L2.34735 10.2671C2.43653 10.5119 2.46635 10.7743 2.43437 11.0329C2.40238 11.2914 2.3095 11.5387 2.16335 11.7544C1.86752 12.1571 1.74274 12.6602 1.81615 13.1544C1.88956 13.6486 2.15522 14.0938 2.55535 14.3931L4.21135 15.6485C4.52491 15.8764 4.9037 15.997 5.29135 15.9924C5.3951 16.0025 5.4996 16.0025 5.60335 15.9924C5.84343 15.9459 6.07153 15.8511 6.27372 15.7136C6.47591 15.5761 6.64795 15.3989 6.77935 15.1928L6.96335 14.9289C7.09242 14.7438 7.2632 14.5917 7.46192 14.4847C7.66064 14.3778 7.88173 14.319 8.10735 14.3132C8.34379 14.3074 8.57786 14.3615 8.7877 14.4706C8.99754 14.5796 9.17632 14.7401 9.30735 14.9369L9.40335 15.0728C9.53975 15.2757 9.71626 15.4486 9.92201 15.5807C10.1278 15.7129 10.3584 15.8015 10.5997 15.8412C10.841 15.8809 11.0879 15.8708 11.3252 15.8116C11.5625 15.7523 11.7851 15.6451 11.9793 15.4966L13.6033 14.2812C13.9873 13.9831 14.2427 13.5495 14.317 13.0693C14.3914 12.5891 14.2792 12.0986 14.0033 11.6984L13.7953 11.3946C13.6703 11.2014 13.5884 10.9835 13.5552 10.7558C13.5221 10.5281 13.5385 10.296 13.6033 10.0752C13.6694 9.83886 13.7921 9.62217 13.9608 9.44384C14.1294 9.26551 14.339 9.13092 14.5713 9.05169L14.7313 8.99571C15.1943 8.83514 15.5767 8.50093 15.7976 8.06373C16.0186 7.62652 16.0608 7.12058 15.9153 6.65283ZM8.00335 10.7949C7.44956 10.7949 6.90821 10.6307 6.44775 10.3232C5.98729 10.0157 5.62841 9.57858 5.41648 9.06719C5.20456 8.5558 5.14911 7.99309 5.25715 7.4502C5.36519 6.90731 5.63186 6.40863 6.02345 6.01723C6.41504 5.62583 6.91395 5.35929 7.45709 5.2513C8.00024 5.14331 8.56323 5.19873 9.07486 5.41056C9.58649 5.62238 10.0238 5.9811 10.3315 6.44133C10.6391 6.90157 10.8033 7.44267 10.8033 7.99619C10.8033 8.73844 10.5083 9.45029 9.98325 9.97515C9.45815 10.5 8.74595 10.7949 8.00335 10.7949Z" fill="#787887"/>
</svg>
